<svg width="18" height="16" viewBox="0 0 18 16" fill="none" xmlns="http://www.w3.org/2000/svg">
<path d="M4.87302 3.62058C4.51408 3.62058 4.23317 3.32407 4.23317 2.98074V0.639844C4.23317 0.280907 4.52969 0 4.87302 0C5.23195 0 5.51286 0.296513 5.51286 0.639844V2.96513C5.51286 3.32407 5.23195 3.62058 4.87302 3.62058ZM12.676 3.62058C12.3171 3.62058 12.0205 3.32407 12.0205 2.98074V0.639844C12.0205 0.280907 12.3171 0 12.676 0C13.0349 0 13.3158 0.296513 13.3158 0.639844V2.96513C13.3158 3.32407 13.0349 3.62058 12.676 3.62058ZM14.9233 13.6552V5.00951H2.50091V13.6552H14.9233ZM0.378502 2.74665C0.378502 1.88832 1.06516 1.20166 1.92349 1.20166H3.99908V1.88832C3.73378 2.12241 3.56212 2.48135 3.56212 2.85589C3.56212 3.57376 4.13954 4.15118 4.85741 4.15118C5.57528 4.15118 6.1527 3.57376 6.1527 2.85589C6.1527 2.46574 5.98104 2.12241 5.71574 1.88832V1.20166H11.7865V1.88832C11.5212 2.12241 11.3495 2.48135 11.3495 2.85589C11.3495 3.57376 11.9269 4.15118 12.6448 4.15118C13.3627 4.15118 13.9401 3.57376 13.9401 2.85589C13.9401 2.46574 13.7684 2.12241 13.5031 1.88832V1.20166H15.4695C16.3278 1.20166 17.0145 1.88832 17.0145 2.74665V13.4992C17.0145 14.3575 16.3278 15.0441 15.4695 15.0441H1.89228C1.03395 15.0441 0.34729 14.3575 0.34729 13.4992V2.74665H0.378502ZM4.0303 10.9554H5.82498V12.7501H4.0303V10.9554ZM4.0303 8.42722H5.82498V10.2219H4.0303V8.42722ZM6.55846 8.42722H8.35315V10.2219H6.55846V8.42722ZM9.08662 8.42722H10.8813V10.2219H9.08662V8.42722ZM11.6148 8.42722H13.4095V10.2219H11.6148V8.42722ZM11.6148 5.89905H13.4095V7.69374H11.6148V5.89905ZM9.08662 5.89905H10.8813V7.69374H9.08662V5.89905ZM6.55846 5.89905H8.35315V7.69374H6.55846V5.89905ZM6.55846 10.9554H8.35315V12.7501H6.55846V10.9554Z" fill="#DDDDDD"/>
</svg>
