<svg width="31" height="25" viewBox="0 0 31 25" fill="none" xmlns="http://www.w3.org/2000/svg">
<path d="M14.8248 13.1513H0.750729C0.336014 13.1513 0 12.8153 0 12.4007C0 11.9859 0.336014 11.6499 0.750729 11.6499H14.8248C15.2396 11.6499 15.5756 11.9859 15.5756 12.4007C15.5756 12.8153 15.2396 13.1513 14.8248 13.1513Z" fill="#EBEBEB"/>
<path d="M30.2238 13.1514H22.7571C22.3424 13.1514 22.0063 12.8153 22.0063 12.4006C22.0063 11.9859 22.3424 11.6499 22.7571 11.6499H30.2238C30.6385 11.6499 30.9746 11.9859 30.9746 12.4006C30.9746 12.8153 30.6385 13.1514 30.2238 13.1514Z" fill="#EBEBEB"/>
<path d="M10.8586 22.6583H0.750729C0.336014 22.6583 0 22.3223 0 21.9076C0 21.493 0.336014 21.1569 0.750729 21.1569H10.8586C11.2733 21.1569 11.6093 21.493 11.6093 21.9076C11.6093 22.3223 11.2733 22.6583 10.8586 22.6583Z" fill="#EBEBEB"/>
<path d="M30.2238 22.6583H18.7905C18.3759 22.6583 18.0398 22.3223 18.0398 21.9076C18.0398 21.493 18.3759 21.1569 18.7905 21.1569H30.2238C30.6385 21.1569 30.9746 21.493 30.9746 21.9076C30.9746 22.3223 30.6385 22.6583 30.2238 22.6583Z" fill="#EBEBEB"/>
<path d="M6.54759 3.84319H0.750729C0.336014 3.84319 0 3.50713 0 3.09247C0 2.6778 0.336014 2.34174 0.750729 2.34174H6.54759C6.96225 2.34174 7.29832 2.67775 7.29832 3.09247C7.29832 3.50718 6.9623 3.84319 6.54759 3.84319Z" fill="#EBEBEB"/>
<path d="M30.2239 3.84319H14.4801C14.0654 3.84319 13.7294 3.50718 13.7294 3.09247C13.7294 2.67775 14.0654 2.34174 14.4801 2.34174H30.2242C30.6388 2.34174 30.9749 2.67775 30.9749 3.09247C30.9746 3.50713 30.6385 3.84319 30.2239 3.84319Z" fill="#EBEBEB"/>
<path d="M8.8892 6.18424C7.18383 6.18424 5.79675 4.79717 5.79675 3.09184C5.79675 1.38708 7.18383 0 8.8892 0C10.594 0 11.981 1.38708 11.981 3.09184C11.9807 4.79722 10.5937 6.18424 8.8892 6.18424ZM8.8892 1.50151C8.01204 1.50151 7.29826 2.21499 7.29826 3.09184C7.29826 3.969 8.01204 4.68278 8.8892 4.68278C9.76606 4.68278 10.4795 3.96895 10.4795 3.09184C10.4793 2.21504 9.76575 1.50151 8.8892 1.50151Z" fill="#EBEBEB"/>
<path d="M13.0432 25C11.3378 25 9.95081 23.6129 9.95081 21.9075C9.95081 20.2025 11.3378 18.8154 13.0432 18.8154C14.7483 18.8154 16.1353 20.2024 16.1353 21.9075C16.135 23.6129 14.748 25 13.0432 25ZM13.0432 20.3169C12.166 20.3169 11.4523 21.0305 11.4523 21.9077C11.4523 22.7848 12.166 23.4987 13.0432 23.4987C13.9204 23.4987 14.6338 22.7848 14.6338 21.9077C14.6338 21.0305 13.9201 20.3169 13.0432 20.3169Z" fill="#EBEBEB"/>
<path d="M17.1662 15.4921C15.4612 15.4921 14.0741 14.1051 14.0741 12.4C14.0741 10.6952 15.4612 9.30817 17.1662 9.30817C18.8713 9.30817 20.2583 10.6952 20.2583 12.4C20.2583 14.1051 18.8713 15.4921 17.1662 15.4921ZM17.1662 10.8097C16.2891 10.8097 15.5756 11.5232 15.5756 12.4C15.5756 13.2772 16.2891 13.9906 17.1662 13.9906C18.0434 13.9906 18.7569 13.2772 18.7569 12.4C18.7569 11.5232 18.0434 10.8097 17.1662 10.8097Z" fill="#EBEBEB"/>
</svg>
